<svg fill="none" height="580" viewBox="0 0 1700 580" width="1700" xmlns="http://www.w3.org/2000/svg" xmlns:xlink="http://www.w3.org/1999/xlink"><clipPath id="a"><path d="m0 0h1700v580h-1700z"/></clipPath><g clip-path="url(#a)"><g fill="#000"><path d="m197.9 91.3587 25.994 1.0854c47.658 2.1709 113.728 22.2519 114.27 77.6099-2.708 24.966-39.534 70.555-78.526 97.691l-18.955 13.026-14.622-15.197c-11.373-11.94-23.287-17.367-34.119-17.367-5.957 0-11.914 1.628-18.954 5.97-8.124 4.342-12.998 9.769-14.622 14.654-2.708 6.513 2.166 16.282 23.287 32.021 0 0-14.081 4.342-30.869 4.342-91.5243 0-96.3984-119.401-69.3203-161.191 23.2873-35.82 64.9873-49.9307 116.4363-52.6443zm-190.63028 115.6013c-4.33249 72.725 43.86648 143.28 120.22628 154.677 51.449 7.056 71.487-.542 97.482-12.482 0 0 17.33 14.111 25.453 18.995 29.244 18.453 48.199 20.624 73.111 20.624 20.038 0 39.534-6.513 60.113-22.252 10.29-7.056 22.204-17.367 18.955-29.307-1.625-4.342-8.124-5.97-18.955-4.885-17.33 1.628-28.161 9.769-41.7 9.769-11.373 0-25.995-2.171-40.076-13.025l-19.496-16.282c12.998-7.598 17.872-12.483 29.786-22.795 49.282-41.247 99.106-101.49 67.695-170.959-18.954-48.303-75.818-66.7558-145.68-74.354-18.954-1.0854-31.41-1.0854-37.368-1.0854-100.7301 2.1709-182.506 42.3328-189.54628 163.3614z"/><path d="m1487.81 91.0648c31.87-3.2364 35.65-.0001 40.51 2.1575 4.32 2.1576-4.86 19.9577 4.32 25.3517 24.31 14.024 45.91-2.697 55.09 0 31.87 11.327 39.43 15.642 39.97 50.702-2.7 24.812-39.97 68.502-78.32 97.09l-15.12 11.327c-14.58-10.248-41.59-44.769-59.41-81.447-7.02-14.564-23.23-17.261-34.03-17.261-5.94 0-11.88 1.618-18.9 5.933-8.1 4.315-9.72 9.709-11.34 14.564-2.7 32.363 30.78 71.199 58.33 99.787 0 0-11.34 4.315-28.09 4.315-91.28 0-96.14-118.666-69.13-160.199 23.22-35.599 64.81-49.6233 116.12-52.3202zm-190.12 114.8902c-4.32 72.278 43.75 142.398 119.91 153.725 51.31 7.012 71.29-.539 97.22-12.406 0 0 17.28 14.024 25.38 18.879 29.17 18.339 48.07 20.497 72.92 20.497 19.98 0 39.43-6.473 59.95-22.115 10.26-7.012 22.14-17.261 18.9-29.127-1.62-4.315-5.94-5.394-16.74-4.315-17.28 1.618-28.63 9.709-42.13 9.709-11.34 0-38.35 2.157-65.35-26.97 12.96-7.551 22.14-15.103 34.02-25.351 49.15-40.994 98.84-100.866 67.52-169.907-13.5-35.0607-48.07-56.0969-91.82-65.2664-10.26-2.1576-24.85-1.0788-31.33 2.6969-4.32-8.0908-16.2-10.2484-29.16-11.3272-18.91-1.0787-24.31-1.0787-30.25-1.0787-100.46 2.1575-182.02 42.0723-189.04 162.3564z" opacity=".13"/><path d="m869.683 91.0648c31.866-3.2364 35.647-.0001 40.508 2.1575 4.321 2.1576-4.861 19.9577 4.321 25.3517 24.305 14.024 45.909-2.697 55.091 0 31.867 11.327 39.427 15.642 39.967 50.702-2.7 24.812-39.967 68.502-78.315 97.09l-15.123 11.327c-14.583-10.248-41.588-44.769-59.412-81.447-7.021-14.564-23.225-17.261-34.027-17.261-5.941 0-11.882 1.618-18.904 5.933-8.101 4.315-9.722 9.709-11.342 14.564-2.701 32.363 30.786 71.199 58.332 99.787 0 0-11.342 4.315-28.086 4.315-91.279 0-96.14-118.666-69.134-160.199 23.225-35.599 64.813-49.6233 116.124-52.3202zm-190.119 114.8902c-4.321 72.278 43.749 142.398 119.904 153.725 51.311 7.012 71.295-.539 97.22-12.406 0 0 17.284 14.024 25.385 18.879 29.166 18.339 48.07 20.497 72.915 20.497 19.982 0 39.432-6.473 59.952-22.115 10.26-7.012 22.14-17.261 18.9-29.127-1.62-4.315-5.94-5.394-16.74-4.315-17.28 1.618-28.62 9.709-42.13 9.709-11.34 0-38.346 2.157-65.351-26.97 12.963-7.551 22.144-15.103 34.027-25.351 49.154-40.994 98.844-100.866 67.514-169.907-13.5-35.0607-48.07-56.0969-91.819-65.2664-10.262-2.1576-24.845-1.0788-31.326 2.6969-4.321-8.0908-16.204-10.2484-29.166-11.3272-18.904-1.0787-24.305-1.0787-30.247-1.0787-100.46 2.1575-182.017 42.0723-189.038 162.3564z"/><path d="m1384.15 460.806c-2.05 0-3.83-.256-5.33-.768s-2.75-1.088-3.74-1.728c-1.16-.736-2.13-1.584-2.93-2.544l3.6-3.6c.51.704 1.18 1.344 2.01 1.92.71.48 1.59.928 2.64 1.344 1.06.384 2.31.576 3.75.576 1.09 0 2.05-.128 2.88-.384.83-.288 1.53-.656 2.11-1.104.58-.48 1.01-1.024 1.3-1.632.28-.608.43-1.248.43-1.92 0-.928-.26-1.68-.77-2.256-.51-.608-1.18-1.12-2.02-1.536-.83-.416-1.77-.768-2.83-1.056-1.05-.288-2.14-.592-3.26-.912-1.12-.352-2.21-.752-3.27-1.2-1.05-.48-2-1.072-2.83-1.776-.83-.736-1.5-1.632-2.01-2.688-.52-1.056-.77-2.368-.77-3.936 0-1.248.25-2.432.77-3.552.54-1.152 1.31-2.16 2.3-3.024s2.19-1.536 3.6-2.016c1.44-.512 3.06-.768 4.85-.768 1.73 0 3.25.224 4.56.672s2.41.944 3.31 1.488c1.06.64 1.95 1.36 2.69 2.16l-3.6 3.6c-.51-.576-1.11-1.088-1.78-1.536-.57-.384-1.31-.736-2.21-1.056-.86-.352-1.85-.528-2.97-.528-2.05 0-3.6.464-4.66 1.392-1.05.896-1.58 1.952-1.58 3.168 0 .928.25 1.696.77 2.304.51.576 1.18 1.072 2.01 1.488s1.78.768 2.83 1.056c1.06.288 2.15.608 3.27.96 1.12.32 2.21.72 3.26 1.2 1.06.448 2 1.04 2.83 1.776.84.704 1.51 1.584 2.02 2.64s.77 2.368.77 3.936c0 1.312-.29 2.576-.87 3.792-.54 1.184-1.32 2.224-2.35 3.12-1.02.896-2.29 1.616-3.79 2.16-1.47.512-3.14.768-4.99.768zm26.89 0c-2.3 0-4.08-.64-5.33-1.92-1.24-1.312-1.87-3.232-1.87-5.76v-11.28h-4.32v-4.56h2.64c.74 0 1.28-.192 1.63-.576.36-.416.53-1.104.53-2.064v-5.04h4.32v7.68h5.28v4.56h-5.28v10.8c0 2.4 1.12 3.6 3.36 3.6.35 0 .69-.032 1.01-.096s.61-.144.86-.24c.29-.128.55-.256.77-.384v4.56c-.32.128-.65.256-1.01.384-.32.096-.7.176-1.15.24-.41.064-.89.096-1.44.096zm9.34-23.52h4.8v3.12c.51-.64 1.1-1.232 1.78-1.776.57-.448 1.29-.864 2.16-1.248.86-.384 1.87-.576 3.02-.576h1.2v5.04c-.22-.032-.43-.064-.62-.096-.2-.032-.4-.064-.63-.096-.19-.032-.41-.048-.67-.048-.83 0-1.63.176-2.4.528-.74.32-1.39.8-1.97 1.44-.57.608-1.04 1.344-1.39 2.208-.32.832-.48 1.76-.48 2.784v11.76h-4.8zm27.39 23.52c-1.7 0-3.28-.304-4.75-.912-1.44-.64-2.71-1.488-3.8-2.544-1.05-1.088-1.9-2.352-2.54-3.792-.61-1.472-.91-3.056-.91-4.752 0-1.664.3-3.232.91-4.704.64-1.472 1.49-2.736 2.54-3.792 1.09-1.088 2.36-1.936 3.8-2.544 1.47-.64 3.05-.96 4.75-.96 1.66 0 3.23.32 4.7.96 1.47.608 2.74 1.456 3.79 2.544 1.09 1.056 1.94 2.32 2.55 3.792.64 1.472.96 3.04.96 4.704 0 1.696-.32 3.28-.96 4.752-.61 1.44-1.46 2.704-2.55 3.792-1.05 1.056-2.32 1.904-3.79 2.544-1.47.608-3.04.912-4.7.912zm0-4.56c1.02 0 1.97-.176 2.83-.528.9-.384 1.66-.896 2.3-1.536.64-.672 1.14-1.456 1.49-2.352.39-.928.58-1.936.58-3.024s-.19-2.08-.58-2.976c-.35-.928-.85-1.712-1.49-2.352-.64-.672-1.4-1.184-2.3-1.536-.86-.384-1.81-.576-2.83-.576-1.03 0-1.99.192-2.88.576-.87.352-1.62.864-2.26 1.536-.64.64-1.15 1.424-1.53 2.352-.36.896-.53 1.888-.53 2.976s.17 2.096.53 3.024c.38.896.89 1.68 1.53 2.352.64.64 1.39 1.152 2.26 1.536.89.352 1.85.528 2.88.528zm17.52-29.52h4.8v21.12l9.84-10.56h6l-8.88 9.36 9.6 13.68h-5.52l-7.2-10.32-3.84 4.08v6.24h-4.8zm34.79 34.08c-1.7 0-3.28-.304-4.75-.912-1.44-.64-2.71-1.488-3.79-2.544-1.06-1.088-1.91-2.352-2.55-3.792-.61-1.472-.91-3.056-.91-4.752 0-1.664.3-3.232.91-4.704.64-1.472 1.49-2.736 2.55-3.792 1.05-1.088 2.28-1.936 3.69-2.544 1.44-.64 2.98-.96 4.61-.96s3.14.288 4.51.864c1.38.544 2.56 1.328 3.55 2.352 1.03.992 1.81 2.176 2.36 3.552.57 1.376.86 2.88.86 4.512 0 .352-.02.672-.05.96s-.06.544-.09.768c-.04.256-.07.48-.1.672h-17.76c.13.768.38 1.504.77 2.208.41.704.93 1.328 1.53 1.872.64.512 1.38.928 2.21 1.248.83.288 1.73.432 2.69.432 1.02 0 1.95-.16 2.78-.48.84-.32 1.54-.672 2.12-1.056.67-.448 1.28-.976 1.82-1.584l2.88 3.36c-.64.832-1.44 1.552-2.4 2.16-.83.544-1.86 1.04-3.07 1.488-1.22.448-2.67.672-4.37.672zm6-14.4c-.35-1.568-1.06-2.832-2.11-3.792-1.06-.992-2.43-1.488-4.13-1.488-1.82 0-3.28.496-4.37 1.488-1.09.96-1.87 2.224-2.35 3.792zm27.34 14.4c-1.54 0-2.87-.224-3.99-.672s-2.06-.944-2.83-1.488c-.89-.608-1.66-1.328-2.3-2.16l3.12-3.12c.48.608 1.02 1.136 1.63 1.584.54.384 1.17.736 1.87 1.056.74.32 1.57.48 2.5.48 1.34 0 2.35-.288 3.02-.864.71-.608 1.06-1.28 1.06-2.016 0-.64-.31-1.136-.91-1.488-.61-.384-1.36-.72-2.26-1.008s-1.89-.592-2.98-.912c-1.05-.32-2.03-.736-2.92-1.248-.9-.544-1.65-1.232-2.26-2.064-.61-.864-.91-1.984-.91-3.36 0-.896.19-1.744.57-2.544.39-.832.93-1.552 1.64-2.16.73-.608 1.61-1.088 2.64-1.44 1.05-.384 2.24-.576 3.55-.576 1.37 0 2.57.176 3.6.528 1.02.32 1.87.672 2.54 1.056.8.448 1.47.96 2.02 1.536l-3.12 3.12c-.39-.352-.83-.672-1.35-.96-.44-.256-.99-.48-1.63-.672-.61-.192-1.29-.288-2.06-.288-1.22 0-2.13.256-2.74.768-.57.48-.86 1.024-.86 1.632 0 .64.3 1.152.91 1.536.61.352 1.36.672 2.26.96.89.288 1.87.592 2.92.912 1.09.32 2.08.752 2.98 1.296.9.512 1.65 1.2 2.26 2.064.6.864.91 1.968.91 3.312 0 .96-.21 1.872-.63 2.736-.38.864-.96 1.632-1.72 2.304-.77.672-1.72 1.2-2.84 1.584-1.08.384-2.32.576-3.69.576zm23.5 0c-2.31 0-4.08-.64-5.33-1.92-1.25-1.312-1.87-3.232-1.87-5.76v-11.28h-4.32v-4.56h2.64c.73 0 1.28-.192 1.63-.576.35-.416.53-1.104.53-2.064v-5.04h4.32v7.68h5.28v4.56h-5.28v10.8c0 2.4 1.12 3.6 3.36 3.6.35 0 .69-.032 1.01-.096s.6-.144.86-.24c.29-.128.54-.256.77-.384v4.56c-.32.128-.66.256-1.01.384-.32.096-.7.176-1.15.24-.42.064-.9.096-1.44.096zm14.87 0c-1.16 0-2.21-.176-3.17-.528-.93-.384-1.73-.88-2.4-1.488s-1.2-1.312-1.59-2.112c-.35-.832-.52-1.696-.52-2.592 0-1.92.6-3.504 1.82-4.752 1.22-1.28 2.85-2.096 4.9-2.448l8.4-1.44c0-1.216-.45-2.24-1.35-3.072-.86-.832-2.01-1.248-3.45-1.248-.93 0-1.76.176-2.5.528-.7.32-1.33.672-1.87 1.056-.61.448-1.15.96-1.63 1.536l-3.12-3.12c.64-.8 1.4-1.52 2.3-2.16.77-.544 1.71-1.04 2.83-1.488s2.45-.672 3.99-.672c1.44 0 2.75.224 3.93.672 1.19.448 2.19 1.072 3.03 1.872.83.8 1.47 1.744 1.92 2.832.48 1.088.72 2.256.72 3.504v14.64h-4.8v-3.36c-.48.704-1.09 1.344-1.83 1.92-.64.48-1.42.928-2.35 1.344-.93.384-2.02.576-3.26.576zm.96-4.08c.89 0 1.72-.16 2.49-.48.8-.352 1.49-.832 2.07-1.44.6-.608 1.07-1.312 1.39-2.112.35-.832.53-1.728.53-2.688v-.72l-6.72 1.2c-1.22.224-2.13.624-2.74 1.2-.58.544-.86 1.184-.86 1.92 0 .832.33 1.568 1 2.208.68.608 1.62.912 2.84.912zm17.97-19.44h4.8v3.12c.52-.64 1.11-1.232 1.78-1.776.58-.448 1.3-.864 2.16-1.248s1.87-.576 3.02-.576h1.2v5.04c-.22-.032-.43-.064-.62-.096s-.4-.064-.62-.096c-.2-.032-.42-.048-.68-.048-.83 0-1.63.176-2.4.528-.73.32-1.39.8-1.96 1.44-.58.608-1.04 1.344-1.4 2.208-.32.832-.48 1.76-.48 2.784v11.76h-4.8zm26.9 23.52c-2.3 0-4.08-.64-5.33-1.92-1.25-1.312-1.87-3.232-1.87-5.76v-11.28h-4.32v-4.56h2.64c.74 0 1.28-.192 1.63-.576.35-.416.53-1.104.53-2.064v-5.04h4.32v7.68h5.28v4.56h-5.28v10.8c0 2.4 1.12 3.6 3.36 3.6.35 0 .69-.032 1.01-.096s.61-.144.86-.24c.29-.128.55-.256.77-.384v4.56c-.32.128-.66.256-1.01.384-.32.096-.7.176-1.15.24-.42.064-.9.096-1.44.096z" opacity=".6"/><path d="m87.6743 435.204h13.4397c1.504 0 2.864.24 4.08.72 1.248.48 2.32 1.12 3.216 1.92s1.584 1.744 2.064 2.832.72 2.224.72 3.408c0 1.28-.224 2.336-.672 3.168-.416.832-.88 1.52-1.392 2.064-.576.608-1.248 1.104-2.016 1.488 1.088.448 2.048 1.056 2.88 1.824.736.64 1.392 1.488 1.968 2.544.608 1.024.912 2.288.912 3.792 0 1.312-.272 2.576-.816 3.792-.544 1.184-1.312 2.224-2.304 3.12-.96.896-2.112 1.616-3.456 2.16-1.344.512-2.832.768-4.464.768h-14.1597zm14.1597 29.04c1.696 0 3.072-.528 4.128-1.584 1.088-1.056 1.632-2.368 1.632-3.936s-.544-2.88-1.632-3.936c-1.056-1.056-2.432-1.584-4.128-1.584h-8.8797v11.04zm-.72-15.36c1.44 0 2.592-.416 3.456-1.248.896-.864 1.344-1.968 1.344-3.312s-.448-2.432-1.344-3.264c-.864-.864-2.016-1.296-3.456-1.296h-8.1597v9.12zm28.305 20.4c-1.696 0-3.28-.304-4.752-.912-1.44-.64-2.704-1.488-3.792-2.544-1.056-1.088-1.904-2.352-2.544-3.792-.608-1.472-.912-3.056-.912-4.752 0-1.664.304-3.232.912-4.704.64-1.472 1.488-2.736 2.544-3.792 1.056-1.088 2.288-1.936 3.696-2.544 1.44-.64 2.976-.96 4.608-.96s3.136.288 4.512.864c1.376.544 2.56 1.328 3.552 2.352 1.024.992 1.808 2.176 2.352 3.552.576 1.376.864 2.88.864 4.512 0 .352-.016.672-.048.96s-.064.544-.096.768c-.032.256-.064.48-.096.672h-17.76c.128.768.384 1.504.768 2.208.416.704.928 1.328 1.536 1.872.64.512 1.376.928 2.208 1.248.832.288 1.728.432 2.688.432 1.024 0 1.952-.16 2.784-.48s1.536-.672 2.112-1.056c.672-.448 1.28-.976 1.824-1.584l2.88 3.36c-.64.832-1.44 1.552-2.4 2.16-.832.544-1.856 1.04-3.072 1.488s-2.672.672-4.368.672zm6-14.4c-.352-1.568-1.056-2.832-2.112-3.792-1.056-.992-2.432-1.488-4.128-1.488-1.824 0-3.28.496-4.368 1.488-1.088.96-1.872 2.224-2.352 3.792zm17.26 14.4c-1.536 0-2.864-.224-3.984-.672s-2.064-.944-2.832-1.488c-.896-.608-1.664-1.328-2.304-2.16l3.12-3.12c.48.608 1.024 1.136 1.632 1.584.544.384 1.168.736 1.872 1.056.736.32 1.568.48 2.496.48 1.344 0 2.352-.288 3.024-.864.704-.608 1.056-1.28 1.056-2.016 0-.64-.304-1.136-.912-1.488-.608-.384-1.36-.72-2.256-1.008s-1.888-.592-2.976-.912c-1.056-.32-2.032-.736-2.928-1.248-.896-.544-1.648-1.232-2.256-2.064-.608-.864-.912-1.984-.912-3.36 0-.896.192-1.744.576-2.544.384-.832.928-1.552 1.632-2.16.736-.608 1.616-1.088 2.64-1.44 1.056-.384 2.24-.576 3.552-.576 1.376 0 2.576.176 3.6.528 1.024.32 1.872.672 2.544 1.056.8.448 1.472.96 2.016 1.536l-3.12 3.12c-.384-.352-.832-.672-1.344-.96-.448-.256-.992-.48-1.632-.672-.608-.192-1.296-.288-2.064-.288-1.216 0-2.128.256-2.736.768-.576.48-.864 1.024-.864 1.632 0 .64.304 1.152.912 1.536.608.352 1.36.672 2.256.96s1.872.592 2.928.912c1.088.32 2.08.752 2.976 1.296.896.512 1.648 1.2 2.256 2.064s.912 1.968.912 3.312c0 .96-.208 1.872-.624 2.736-.384.864-.96 1.632-1.728 2.304s-1.712 1.2-2.832 1.584c-1.088.384-2.32.576-3.696.576zm23.499 0c-2.304 0-4.08-.64-5.328-1.92-1.248-1.312-1.872-3.232-1.872-5.76v-11.28h-4.32v-4.56h2.64c.736 0 1.28-.192 1.632-.576.352-.416.528-1.104.528-2.064v-5.04h4.32v7.68h5.28v4.56h-5.28v10.8c0 2.4 1.12 3.6 3.36 3.6.352 0 .688-.032 1.008-.096s.608-.144.864-.24c.288-.128.544-.256.768-.384v4.56c-.32.128-.656.256-1.008.384-.32.096-.704.176-1.152.24-.416.064-.896.096-1.44.096zm36.456 0c-2.528 0-4.88-.448-7.056-1.344-2.144-.896-4.016-2.128-5.616-3.696-1.568-1.568-2.816-3.392-3.744-5.472-.896-2.112-1.344-4.368-1.344-6.768s.448-4.64 1.344-6.72c.928-2.112 2.176-3.952 3.744-5.52 1.6-1.568 3.472-2.8 5.616-3.696 2.176-.896 4.528-1.344 7.056-1.344 2.304 0 4.304.336 6 1.008s3.12 1.424 4.272 2.256c1.312.96 2.448 2.032 3.408 3.216l-3.36 3.36c-.672-.928-1.52-1.76-2.544-2.496-.864-.64-1.952-1.216-3.264-1.728-1.28-.544-2.784-.816-4.512-.816s-3.36.32-4.896.96c-1.504.64-2.832 1.536-3.984 2.688-1.12 1.12-2 2.448-2.64 3.984-.64 1.504-.96 3.12-.96 4.848s.32 3.36.96 4.896c.64 1.504 1.52 2.832 2.64 3.984 1.152 1.12 2.48 2 3.984 2.64 1.536.64 3.168.96 4.896.96 1.504 0 2.816-.176 3.936-.528 1.152-.384 2.112-.8 2.88-1.248.896-.544 1.664-1.152 2.304-1.824v-5.04h-6.96v-4.8h12.24v11.76c-1.024 1.216-2.256 2.304-3.696 3.264-1.216.832-2.72 1.584-4.512 2.256-1.792.64-3.856.96-6.192.96zm30.705 0c-1.312 0-2.528-.224-3.648-.672-1.12-.48-2.096-1.152-2.928-2.016-.8-.864-1.424-1.92-1.872-3.168s-.672-2.656-.672-4.224v-13.44h4.8v13.44c0 1.696.48 3.04 1.44 4.032.992.992 2.272 1.488 3.84 1.488.896 0 1.728-.16 2.496-.48s1.424-.752 1.968-1.296c.544-.576.976-1.264 1.296-2.064s.48-1.68.48-2.64v-12.48h4.8v23.04h-4.8v-3.36c-.512.704-1.12 1.344-1.824 1.92-.608.48-1.36.928-2.256 1.344-.864.384-1.904.576-3.12.576zm29.283 0c-1.696 0-3.28-.304-4.752-.912-1.44-.64-2.704-1.488-3.792-2.544-1.056-1.088-1.904-2.352-2.544-3.792-.608-1.472-.912-3.056-.912-4.752 0-1.664.304-3.232.912-4.704.64-1.472 1.488-2.736 2.544-3.792 1.056-1.088 2.288-1.936 3.696-2.544 1.44-.64 2.976-.96 4.608-.96s3.136.288 4.512.864c1.376.544 2.56 1.328 3.552 2.352 1.024.992 1.808 2.176 2.352 3.552.576 1.376.864 2.88.864 4.512 0 .352-.016.672-.048.96s-.064.544-.096.768c-.032.256-.064.48-.096.672h-17.76c.128.768.384 1.504.768 2.208.416.704.928 1.328 1.536 1.872.64.512 1.376.928 2.208 1.248.832.288 1.728.432 2.688.432 1.024 0 1.952-.16 2.784-.48s1.536-.672 2.112-1.056c.672-.448 1.28-.976 1.824-1.584l2.88 3.36c-.64.832-1.44 1.552-2.4 2.16-.832.544-1.856 1.04-3.072 1.488s-2.672.672-4.368.672zm6-14.4c-.352-1.568-1.056-2.832-2.112-3.792-1.056-.992-2.432-1.488-4.128-1.488-1.824 0-3.28.496-4.368 1.488-1.088.96-1.872 2.224-2.352 3.792zm17.26 14.4c-1.536 0-2.864-.224-3.984-.672s-2.064-.944-2.832-1.488c-.896-.608-1.664-1.328-2.304-2.16l3.12-3.12c.48.608 1.024 1.136 1.632 1.584.544.384 1.168.736 1.872 1.056.736.32 1.568.48 2.496.48 1.344 0 2.352-.288 3.024-.864.704-.608 1.056-1.28 1.056-2.016 0-.64-.304-1.136-.912-1.488-.608-.384-1.36-.72-2.256-1.008s-1.888-.592-2.976-.912c-1.056-.32-2.032-.736-2.928-1.248-.896-.544-1.648-1.232-2.256-2.064-.608-.864-.912-1.984-.912-3.36 0-.896.192-1.744.576-2.544.384-.832.928-1.552 1.632-2.16.736-.608 1.616-1.088 2.64-1.44 1.056-.384 2.24-.576 3.552-.576 1.376 0 2.576.176 3.6.528 1.024.32 1.872.672 2.544 1.056.8.448 1.472.96 2.016 1.536l-3.12 3.12c-.384-.352-.832-.672-1.344-.96-.448-.256-.992-.48-1.632-.672-.608-.192-1.296-.288-2.064-.288-1.216 0-2.128.256-2.736.768-.576.48-.864 1.024-.864 1.632 0 .64.304 1.152.912 1.536.608.352 1.36.672 2.256.96s1.872.592 2.928.912c1.088.32 2.08.752 2.976 1.296.896.512 1.648 1.2 2.256 2.064s.912 1.968.912 3.312c0 .96-.208 1.872-.624 2.736-.384.864-.96 1.632-1.728 2.304s-1.712 1.2-2.832 1.584c-1.088.384-2.32.576-3.696.576zm20.859 0c-1.536 0-2.864-.224-3.984-.672s-2.064-.944-2.832-1.488c-.896-.608-1.664-1.328-2.304-2.16l3.12-3.12c.48.608 1.024 1.136 1.632 1.584.544.384 1.168.736 1.872 1.056.736.32 1.568.48 2.496.48 1.344 0 2.352-.288 3.024-.864.704-.608 1.056-1.28 1.056-2.016 0-.64-.304-1.136-.912-1.488-.608-.384-1.36-.72-2.256-1.008s-1.888-.592-2.976-.912c-1.056-.32-2.032-.736-2.928-1.248-.896-.544-1.648-1.232-2.256-2.064-.608-.864-.912-1.984-.912-3.36 0-.896.192-1.744.576-2.544.384-.832.928-1.552 1.632-2.16.736-.608 1.616-1.088 2.64-1.44 1.056-.384 2.24-.576 3.552-.576 1.376 0 2.576.176 3.6.528 1.024.32 1.872.672 2.544 1.056.8.448 1.472.96 2.016 1.536l-3.12 3.12c-.384-.352-.832-.672-1.344-.96-.448-.256-.992-.48-1.632-.672-.608-.192-1.296-.288-2.064-.288-1.216 0-2.128.256-2.736.768-.576.48-.864 1.024-.864 1.632 0 .64.304 1.152.912 1.536.608.352 1.36.672 2.256.96s1.872.592 2.928.912c1.088.32 2.08.752 2.976 1.296.896.512 1.648 1.2 2.256 2.064s.912 1.968.912 3.312c0 .96-.208 1.872-.624 2.736-.384.864-.96 1.632-1.728 2.304s-1.712 1.2-2.832 1.584c-1.088.384-2.32.576-3.696.576z" opacity=".6"/><path d="m797.97 469.284c-2.112 0-4.032-.336-5.76-1.008-1.728-.704-3.216-1.664-4.464-2.88-1.248-1.248-2.224-2.72-2.928-4.416-.672-1.696-1.008-3.568-1.008-5.616v-20.16h5.28v20.16c0 1.312.224 2.528.672 3.648s1.072 2.096 1.872 2.928c.8.8 1.744 1.424 2.832 1.872s2.256.672 3.504.672c1.184 0 2.32-.24 3.408-.72s2.032-1.12 2.832-1.92c.8-.832 1.44-1.808 1.92-2.928s.72-2.304.72-3.552v-20.16h5.28v20.16c0 2.048-.352 3.92-1.056 5.616-.672 1.696-1.632 3.168-2.88 4.416-1.248 1.216-2.736 2.176-4.464 2.88-1.728.672-3.648 1.008-5.76 1.008zm21.818-23.52h4.8v3.36c.48-.704 1.104-1.344 1.872-1.92.64-.48 1.456-.912 2.448-1.296.992-.416 2.192-.624 3.6-.624 1.44 0 2.816.304 4.128.912 1.312.576 2.448 1.408 3.408 2.496.992 1.056 1.776 2.32 2.352 3.792.608 1.472.912 3.072.912 4.8s-.304 3.328-.912 4.8c-.576 1.472-1.36 2.752-2.352 3.84-.96 1.056-2.096 1.888-3.408 2.496-1.312.576-2.688.864-4.128.864-1.408 0-2.608-.192-3.6-.576-.992-.416-1.808-.864-2.448-1.344-.768-.576-1.392-1.216-1.872-1.92v13.44h-4.8zm11.76 18.96c.96 0 1.856-.176 2.688-.528.864-.384 1.6-.896 2.208-1.536.64-.672 1.136-1.456 1.488-2.352.384-.928.576-1.936.576-3.024s-.192-2.08-.576-2.976c-.352-.928-.848-1.712-1.488-2.352-.608-.672-1.344-1.184-2.208-1.536-.832-.384-1.728-.576-2.688-.576s-1.872.192-2.736.576c-.832.352-1.568.864-2.208 1.536-.608.64-1.104 1.424-1.488 2.352-.352.896-.528 1.888-.528 2.976s.176 2.096.528 3.024c.384.896.88 1.68 1.488 2.352.64.64 1.376 1.152 2.208 1.536.864.352 1.776.528 2.736.528zm26.381 4.56c-1.44 0-2.816-.288-4.128-.864-1.312-.608-2.464-1.44-3.456-2.496-.96-1.088-1.744-2.368-2.352-3.84-.576-1.472-.864-3.072-.864-4.8s.288-3.328.864-4.8c.608-1.472 1.392-2.736 2.352-3.792.992-1.088 2.144-1.92 3.456-2.496 1.312-.608 2.688-.912 4.128-.912 1.376 0 2.56.208 3.552.624 1.024.384 1.856.816 2.496 1.296.768.576 1.392 1.216 1.872 1.92v-13.92h4.8v33.6h-4.8v-3.36c-.48.704-1.104 1.344-1.872 1.92-.64.48-1.472.928-2.496 1.344-.992.384-2.176.576-3.552.576zm.96-4.56c.96 0 1.856-.176 2.688-.528.864-.384 1.6-.896 2.208-1.536.64-.672 1.136-1.456 1.488-2.352.384-.928.576-1.936.576-3.024s-.192-2.08-.576-2.976c-.352-.928-.848-1.712-1.488-2.352-.608-.672-1.344-1.184-2.208-1.536-.832-.384-1.728-.576-2.688-.576s-1.872.192-2.736.576c-.832.352-1.568.864-2.208 1.536-.608.64-1.104 1.424-1.488 2.352-.352.896-.528 1.888-.528 2.976s.176 2.096.528 3.024c.384.896.88 1.68 1.488 2.352.64.64 1.376 1.152 2.208 1.536.864.352 1.776.528 2.736.528zm24.742 4.56c-1.152 0-2.208-.176-3.168-.528-.928-.384-1.728-.88-2.4-1.488s-1.2-1.312-1.584-2.112c-.352-.832-.528-1.696-.528-2.592 0-1.92.608-3.504 1.824-4.752 1.216-1.28 2.848-2.096 4.896-2.448l8.4-1.44c0-1.216-.448-2.24-1.344-3.072-.864-.832-2.016-1.248-3.456-1.248-.928 0-1.76.176-2.496.528-.704.32-1.328.672-1.872 1.056-.608.448-1.152.96-1.632 1.536l-3.12-3.12c.64-.8 1.408-1.52 2.304-2.16.768-.544 1.712-1.04 2.832-1.488s2.448-.672 3.984-.672c1.44 0 2.752.224 3.936.672s2.192 1.072 3.024 1.872 1.472 1.744 1.92 2.832c.48 1.088.72 2.256.72 3.504v14.64h-4.8v-3.36c-.48.704-1.088 1.344-1.824 1.92-.64.48-1.424.928-2.352 1.344-.928.384-2.016.576-3.264.576zm.96-4.08c.896 0 1.728-.16 2.496-.48.8-.352 1.488-.832 2.064-1.44.608-.608 1.072-1.312 1.392-2.112.352-.832.528-1.728.528-2.688v-.72l-6.72 1.2c-1.216.224-2.128.624-2.736 1.2-.576.544-.864 1.184-.864 1.92 0 .832.336 1.568 1.008 2.208.672.608 1.616.912 2.832.912zm27.109 4.08c-2.304 0-4.08-.64-5.328-1.92-1.248-1.312-1.872-3.232-1.872-5.76v-11.28h-4.32v-4.56h2.64c.736 0 1.28-.192 1.632-.576.352-.416.528-1.104.528-2.064v-5.04h4.32v7.68h5.28v4.56h-5.28v10.8c0 2.4 1.12 3.6 3.36 3.6.352 0 .688-.032 1.008-.096s.608-.144.864-.24c.288-.128.544-.256.768-.384v4.56c-.32.128-.656.256-1.008.384-.32.096-.704.176-1.152.24-.416.064-.896.096-1.44.096zm19.429 0c-1.696 0-3.28-.304-4.752-.912-1.44-.64-2.704-1.488-3.792-2.544-1.056-1.088-1.904-2.352-2.544-3.792-.608-1.472-.912-3.056-.912-4.752 0-1.664.304-3.232.912-4.704.64-1.472 1.488-2.736 2.544-3.792 1.056-1.088 2.288-1.936 3.696-2.544 1.44-.64 2.976-.96 4.608-.96s3.136.288 4.512.864c1.376.544 2.56 1.328 3.552 2.352 1.024.992 1.808 2.176 2.352 3.552.576 1.376.864 2.88.864 4.512 0 .352-.016.672-.048.96s-.064.544-.096.768c-.032.256-.064.48-.096.672h-17.76c.128.768.384 1.504.768 2.208.416.704.928 1.328 1.536 1.872.64.512 1.376.928 2.208 1.248.832.288 1.728.432 2.688.432 1.024 0 1.952-.16 2.784-.48s1.536-.672 2.112-1.056c.672-.448 1.28-.976 1.824-1.584l2.88 3.36c-.64.832-1.44 1.552-2.4 2.16-.832.544-1.856 1.04-3.072 1.488s-2.672.672-4.368.672zm6-14.4c-.352-1.568-1.056-2.832-2.112-3.792-1.056-.992-2.432-1.488-4.128-1.488-1.824 0-3.28.496-4.368 1.488-1.088.96-1.872 2.224-2.352 3.792zm19.659 14.4c-1.44 0-2.816-.288-4.128-.864-1.312-.608-2.464-1.44-3.456-2.496-.96-1.088-1.744-2.368-2.352-3.84-.576-1.472-.864-3.072-.864-4.8s.288-3.328.864-4.8c.608-1.472 1.392-2.736 2.352-3.792.992-1.088 2.144-1.92 3.456-2.496 1.312-.608 2.688-.912 4.128-.912 1.376 0 2.56.208 3.552.624 1.024.384 1.856.816 2.496 1.296.768.576 1.392 1.216 1.872 1.92v-13.92h4.8v33.6h-4.8v-3.36c-.48.704-1.104 1.344-1.872 1.92-.64.48-1.472.928-2.496 1.344-.992.384-2.176.576-3.552.576zm.96-4.56c.96 0 1.856-.176 2.688-.528.864-.384 1.6-.896 2.208-1.536.64-.672 1.136-1.456 1.488-2.352.384-.928.576-1.936.576-3.024s-.192-2.08-.576-2.976c-.352-.928-.848-1.712-1.488-2.352-.608-.672-1.344-1.184-2.208-1.536-.832-.384-1.728-.576-2.688-.576s-1.872.192-2.736.576c-.832.352-1.568.864-2.208 1.536-.608.64-1.104 1.424-1.488 2.352-.352.896-.528 1.888-.528 2.976s.176 2.096.528 3.024c.384.896.88 1.68 1.488 2.352.64.64 1.376 1.152 2.208 1.536.864.352 1.776.528 2.736.528z" opacity=".6"/><path d="m1384.15 533.008c-2.05 0-3.83-.256-5.33-.768s-2.75-1.088-3.74-1.728c-1.16-.736-2.13-1.584-2.93-2.544l3.6-3.6c.51.704 1.18 1.344 2.01 1.92.71.48 1.59.928 2.64 1.344 1.06.384 2.31.576 3.75.576 1.09 0 2.05-.128 2.88-.384.83-.288 1.53-.656 2.11-1.104.58-.48 1.01-1.024 1.3-1.632.28-.608.43-1.248.43-1.92 0-.928-.26-1.68-.77-2.256-.51-.608-1.18-1.12-2.02-1.536-.83-.416-1.77-.768-2.83-1.056-1.05-.288-2.14-.592-3.26-.912-1.12-.352-2.21-.752-3.27-1.2-1.05-.48-2-1.072-2.83-1.776-.83-.736-1.5-1.632-2.01-2.688-.52-1.056-.77-2.368-.77-3.936 0-1.248.25-2.432.77-3.552.54-1.152 1.31-2.16 2.3-3.024s2.19-1.536 3.6-2.016c1.44-.512 3.06-.768 4.85-.768 1.73 0 3.25.224 4.56.672s2.41.944 3.31 1.488c1.06.64 1.95 1.36 2.69 2.16l-3.6 3.6c-.51-.576-1.11-1.088-1.78-1.536-.57-.384-1.31-.736-2.21-1.056-.86-.352-1.85-.528-2.97-.528-2.05 0-3.6.464-4.66 1.392-1.05.896-1.58 1.952-1.58 3.168 0 .928.25 1.696.77 2.304.51.576 1.18 1.072 2.01 1.488s1.78.768 2.83 1.056c1.06.288 2.15.608 3.27.96 1.12.32 2.21.72 3.26 1.2 1.06.448 2 1.04 2.83 1.776.84.704 1.51 1.584 2.02 2.64s.77 2.368.77 3.936c0 1.312-.29 2.576-.87 3.792-.54 1.184-1.32 2.224-2.35 3.12-1.02.896-2.29 1.616-3.79 2.16-1.47.512-3.14.768-4.99.768zm26.89 0c-2.3 0-4.08-.64-5.33-1.92-1.24-1.312-1.87-3.232-1.87-5.76v-11.28h-4.32v-4.56h2.64c.74 0 1.28-.192 1.63-.576.36-.416.53-1.104.53-2.064v-5.04h4.32v7.68h5.28v4.56h-5.28v10.8c0 2.4 1.12 3.6 3.36 3.6.35 0 .69-.032 1.01-.096s.61-.144.86-.24c.29-.128.55-.256.77-.384v4.56c-.32.128-.65.256-1.01.384-.32.096-.7.176-1.15.24-.41.064-.89.096-1.44.096zm9.34-23.52h4.8v3.12c.51-.64 1.1-1.232 1.78-1.776.57-.448 1.29-.864 2.16-1.248.86-.384 1.87-.576 3.02-.576h1.2v5.04c-.22-.032-.43-.064-.62-.096-.2-.032-.4-.064-.63-.096-.19-.032-.41-.048-.67-.048-.83 0-1.63.176-2.4.528-.74.32-1.39.8-1.97 1.44-.57.608-1.04 1.344-1.39 2.208-.32.832-.48 1.76-.48 2.784v11.76h-4.8zm27.39 23.52c-1.7 0-3.28-.304-4.75-.912-1.44-.64-2.71-1.488-3.8-2.544-1.05-1.088-1.9-2.352-2.54-3.792-.61-1.472-.91-3.056-.91-4.752 0-1.664.3-3.232.91-4.704.64-1.472 1.49-2.736 2.54-3.792 1.09-1.088 2.36-1.936 3.8-2.544 1.47-.64 3.05-.96 4.75-.96 1.66 0 3.23.32 4.7.96 1.47.608 2.74 1.456 3.79 2.544 1.09 1.056 1.94 2.32 2.55 3.792.64 1.472.96 3.04.96 4.704 0 1.696-.32 3.28-.96 4.752-.61 1.44-1.46 2.704-2.55 3.792-1.05 1.056-2.32 1.904-3.79 2.544-1.47.608-3.04.912-4.7.912zm0-4.56c1.02 0 1.97-.176 2.83-.528.9-.384 1.66-.896 2.3-1.536.64-.672 1.14-1.456 1.49-2.352.39-.928.58-1.936.58-3.024s-.19-2.08-.58-2.976c-.35-.928-.85-1.712-1.49-2.352-.64-.672-1.4-1.184-2.3-1.536-.86-.384-1.81-.576-2.83-.576-1.03 0-1.99.192-2.88.576-.87.352-1.62.864-2.26 1.536-.64.64-1.15 1.424-1.53 2.352-.36.896-.53 1.888-.53 2.976s.17 2.096.53 3.024c.38.896.89 1.68 1.53 2.352.64.64 1.39 1.152 2.26 1.536.89.352 1.85.528 2.88.528zm17.52-29.52h4.8v21.12l9.84-10.56h6l-8.88 9.36 9.6 13.68h-5.52l-7.2-10.32-3.84 4.08v6.24h-4.8zm34.79 34.08c-1.7 0-3.28-.304-4.75-.912-1.44-.64-2.71-1.488-3.79-2.544-1.06-1.088-1.91-2.352-2.55-3.792-.61-1.472-.91-3.056-.91-4.752 0-1.664.3-3.232.91-4.704.64-1.472 1.49-2.736 2.55-3.792 1.05-1.088 2.28-1.936 3.69-2.544 1.44-.64 2.98-.96 4.61-.96s3.14.288 4.51.864c1.38.544 2.56 1.328 3.55 2.352 1.03.992 1.81 2.176 2.36 3.552.57 1.376.86 2.88.86 4.512 0 .352-.02.672-.05.96s-.06.544-.09.768c-.04.256-.07.48-.1.672h-17.76c.13.768.38 1.504.77 2.208.41.704.93 1.328 1.53 1.872.64.512 1.38.928 2.21 1.248.83.288 1.73.432 2.69.432 1.02 0 1.95-.16 2.78-.48.84-.32 1.54-.672 2.12-1.056.67-.448 1.28-.976 1.82-1.584l2.88 3.36c-.64.832-1.44 1.552-2.4 2.16-.83.544-1.86 1.04-3.07 1.488-1.22.448-2.67.672-4.37.672zm6-14.4c-.35-1.568-1.06-2.832-2.11-3.792-1.06-.992-2.43-1.488-4.13-1.488-1.82 0-3.28.496-4.37 1.488-1.09.96-1.87 2.224-2.35 3.792zm30.94 14.4c-1.7 0-3.28-.304-4.75-.912-1.44-.64-2.71-1.488-3.8-2.544-1.05-1.088-1.9-2.352-2.54-3.792-.61-1.472-.91-3.056-.91-4.752 0-1.664.3-3.232.91-4.704.64-1.472 1.49-2.736 2.54-3.792 1.06-1.088 2.29-1.936 3.7-2.544 1.44-.64 2.98-.96 4.61-.96s3.13.288 4.51.864c1.38.544 2.56 1.328 3.55 2.352 1.03.992 1.81 2.176 2.35 3.552.58 1.376.87 2.88.87 4.512 0 .352-.02.672-.05.96s-.06.544-.1.768c-.03.256-.06.48-.09.672h-17.76c.13.768.38 1.504.77 2.208.41.704.92 1.328 1.53 1.872.64.512 1.38.928 2.21 1.248.83.288 1.73.432 2.69.432 1.02 0 1.95-.16 2.78-.48s1.54-.672 2.11-1.056c.68-.448 1.28-.976 1.83-1.584l2.88 3.36c-.64.832-1.44 1.552-2.4 2.16-.83.544-1.86 1.04-3.07 1.488-1.22.448-2.68.672-4.37.672zm6-14.4c-.35-1.568-1.06-2.832-2.11-3.792-1.06-.992-2.44-1.488-4.13-1.488-1.83 0-3.28.496-4.37 1.488-1.09.96-1.87 2.224-2.35 3.792zm10.3-9.12h4.8v3.36c.48-.704 1.07-1.344 1.77-1.92.61-.48 1.36-.912 2.26-1.296.9-.416 1.95-.624 3.17-.624 1.31 0 2.53.24 3.65.72 1.12.448 2.08 1.104 2.88 1.968.83.864 1.47 1.92 1.92 3.168.44 1.248.67 2.656.67 4.224v13.44h-4.8v-13.44c0-1.696-.5-3.04-1.49-4.032-.96-.992-2.22-1.488-3.79-1.488-.9 0-1.73.16-2.5.48s-1.42.768-1.97 1.344c-.54.544-.97 1.216-1.29 2.016s-.48 1.68-.48 2.64v12.48h-4.8zm37.2 23.52c-1.44 0-2.82-.288-4.13-.864-1.31-.608-2.46-1.44-3.45-2.496-.96-1.088-1.75-2.368-2.36-3.84-.57-1.472-.86-3.072-.86-4.8s.29-3.328.86-4.8c.61-1.472 1.4-2.736 2.36-3.792.99-1.088 2.14-1.92 3.45-2.496 1.31-.608 2.69-.912 4.13-.912 1.38 0 2.56.208 3.55.624 1.03.384 1.86.816 2.5 1.296.77.576 1.39 1.216 1.87 1.92v-13.92h4.8v33.6h-4.8v-3.36c-.48.704-1.1 1.344-1.87 1.92-.64.48-1.47.928-2.5 1.344-.99.384-2.17.576-3.55.576zm.96-4.56c.96 0 1.86-.176 2.69-.528.86-.384 1.6-.896 2.21-1.536.64-.672 1.13-1.456 1.48-2.352.39-.928.58-1.936.58-3.024s-.19-2.08-.58-2.976c-.35-.928-.84-1.712-1.48-2.352-.61-.672-1.35-1.184-2.21-1.536-.83-.384-1.73-.576-2.69-.576s-1.87.192-2.74.576c-.83.352-1.56.864-2.2 1.536-.61.64-1.11 1.424-1.49 2.352-.35.896-.53 1.888-.53 2.976s.18 2.096.53 3.024c.38.896.88 1.68 1.49 2.352.64.64 1.37 1.152 2.2 1.536.87.352 1.78.528 2.74.528z" opacity=".6"/></g><path d="m1526.06 73.103-16.97-19.7221-19.72 16.9659 16.97 19.7221zm-201.02 127.664-3.18-.155zm329.77-30.269 3.14.57zm-109.63-77.2747c-.74 1.5975-.04 3.4908 1.56 4.2288l26.03 12.0269c1.6.738 3.49.041 4.23-1.556.74-1.598.04-3.491-1.56-4.229l-23.14-10.6905 10.69-23.1398c.74-1.5975.04-3.4908-1.55-4.2288-1.6-.738-3.49-.0413-4.23 1.5562zm-37.23-24.6757c-31.95-2.4003-76.81.277-114.56 18.6901-37.98 18.5293-68.59 52.9593-71.53 113.3743l6.36.31c2.82-57.881 31.88-90.35 67.97-107.9571 36.33-17.7233 79.92-20.4193 111.29-18.0627zm-186.09 132.0644c-1.69 34.665 4.92 61.256 16.63 81.436 11.71 20.184 28.39 33.734 46.47 42.522 36 17.502 77.76 16.237 98.06 10.979l-1.59-6.169c-19.12 4.949-59.28 6.184-93.68-10.541-17.13-8.325-32.77-21.069-43.75-39.989-10.98-18.923-17.42-44.244-15.78-77.928zm161.16 134.937c20.3-5.254 60.13-25.58 96.69-54.736 36.52-29.12 70.59-67.681 78.24-109.745l-6.27-1.14c-7.22 39.716-39.74 77.036-75.94 105.903-36.16 28.831-75.19 48.598-94.31 53.549zm174.93-164.481c4.11-22.608-6.59-48.775-26.63-66.079-20.19-17.4376-50.02-26.0517-84.35-13.4195l2.2 5.9803c32.06-11.7957 59.47-3.7308 77.99 12.2622 18.67 16.128 28.15 40.144 24.52 60.116z" fill="#f00"/><path d="m1432.17 192.252-6.78 25.115 25.11 6.785 6.79-25.115zm246.99 152.093c.4-1.713-.66-3.428-2.38-3.83l-27.91-6.553c-1.72-.402-3.43.661-3.83 2.374-.41 1.713.66 3.428 2.37 3.83l24.82 5.825-5.83 24.815c-.4 1.713.66 3.428 2.37 3.83 1.72.402 3.43-.661 3.83-2.374zm-240.59-134.556c22.21 38.643 55.64 88.731 96.53 121.233 20.46 16.271 42.96 28.267 67 32.088 24.11 3.834 49.53-.604 75.63-16.785l-3.35-5.416c-24.88 15.415-48.75 19.489-71.28 15.908-22.61-3.595-44.11-14.942-64.04-30.784-39.9-31.723-72.85-80.939-94.96-119.419z" fill="#f00"/><path d="m1353.11 444.533-15.33-15.33-15.33 15.33 15.33 15.33zm-53.56 2.655h38.23v-5.31h-38.23z" fill="#f00"/><path d="m1351.34 520.878c1.04-1.037 1.04-2.719 0-3.756l-16.89-16.897c-1.04-1.037-2.72-1.037-3.76 0s-1.04 2.718 0 3.755l15.02 15.02-15.02 15.02c-1.04 1.037-1.04 2.718 0 3.755s2.72 1.037 3.76 0zm-40.11.777h38.24v-5.31h-38.24z" fill="#f00"/></g></svg>